# xmcd
#
# Track frame offsets:
#  150
#  18777
#  38736
#  63680
#  83684
#  111939
#  134245
#  154913
#  172859
#  194252
#
# Disc length: 3004 seconds
#
# Revision: 0
# Processed by: cddbd v1.4PL0 Copyright (c) Steve Scherf et al.
# Submitted via: AltoMP3_Maker 3.0
#
DISCID=810bba0a
DTITLE=Tom Healy Band - Pearl Street
DYEAR=1900
DGENRE=
TTITLE0=Meanass
TTITLE1=Sick and Tired
TTITLE2=Mobody Writes
TTITLE3=Kitchen's Closed
TTITLE4=Couple Down the Hall
TTITLE5=Hookerfied
TTITLE6=If You Love It
TTITLE7=Lost Dog
TTITLE8=Nightime
TTITLE9=Like You Never Left
EXTD=
EXTT0=
EXTT1=
EXTT2=
EXTT3=
EXTT4=
EXTT5=
EXTT6=
EXTT7=
EXTT8=
EXTT9=
PLAYORDER=
